# xmcd CD database file
#
# Track frame offsets:
#	150
#	15053
#	45518
#	67248
#	95016
#	113371
#	126305
#	141285
#	154676
#	169803
#	188132
#	207328
#	223390
#	234878
#	249966
#	265177
#	277066
#	294609
#
# Disc length: 4094 seconds
#
# Revision: 0
# Processed by: cddbd v1.4PL0 Copyright (c) Steve Scherf et al.
# Submitted via: CDex 1.50Beta7
#
DISCID=090ffc12
DTITLE=sonny terry&brownie mcghee - midnite collection
DYEAR=1900
DGENRE=Jazz
TTITLE0=down by the river side
TTITLE1=everybody´s blue
TTITLE2=blues for the lowlands
TTITLE3=blowin´the fuses
TTITLE4=i´m a stranger here
TTITLE5=right on that shore
TTITLE6=walk on
TTITLE7=chain gang special
TTITLE8=pick a bale of cotton
TTITLE9=red river
TTITLE10=betty and dupree
TTITLE11=chain gang blues
TTITLE12=cornbread,meat and molasses
TTITLE13=ham and eggs
TTITLE14=it takes a chain gang
TTITLE15=long john
TTITLE16=rock me momma
TTITLE17=stackhole
EXTD=
EXTT0=
EXTT1=
EXTT2=
EXTT3=
EXTT4=
EXTT5=
EXTT6=
EXTT7=
EXTT8=
EXTT9=
EXTT10=
EXTT11=
EXTT12=
EXTT13=
EXTT14=
EXTT15=
EXTT16=
EXTT17=
PLAYORDER=
